<svg version="1.1" id="Layer_1" xmlns="http://www.w3.org/2000/svg" xmlns:xlink="http://www.w3.org/1999/xlink" x="0px" y="0px"
	 width="100%" viewBox="0 0 500 500" enable-background="new 0 0 500 500" xml:space="preserve">

<path fill="#2FABD3" opacity="1.000000" stroke="none" 
	d="
M293.940674,124.866196 
	C252.808228,125.169334 215.677200,136.310928 183.026657,160.960159 
	C175.940887,166.309464 169.776199,172.682373 166.231384,181.063660 
	C162.502640,189.879791 164.838135,198.589233 173.332977,202.936523 
	C179.253448,205.966354 186.035095,208.105026 192.636765,208.866150 
	C213.822571,211.308716 234.371582,207.328384 254.508133,200.898666 
	C279.097687,193.047089 303.199951,183.952271 326.145355,172.041397 
	C331.444153,169.290833 336.673340,166.233383 341.394318,162.612732 
	C343.884125,160.703247 346.486115,157.325333 346.598114,154.513245 
	C346.669586,152.719498 342.274506,150.747833 339.742798,148.745804 
	C342.470337,144.797180 346.511780,141.615189 352.735626,141.956421 
	C358.512360,142.273163 362.030182,145.918274 360.310303,151.490692 
	C358.829468,156.288696 356.430145,161.076065 353.387909,165.068863 
	C343.694305,177.791229 330.468231,186.405060 316.589050,193.683517 
	C285.832825,209.812592 253.064072,220.126221 218.623337,224.575836 
	C199.323349,227.069321 179.998138,226.850021 161.692657,218.826294 
	C144.364655,211.231018 139.416000,195.913834 148.853027,179.393570 
	C158.072464,163.254211 172.365982,152.346741 187.864365,142.966888 
	C226.586090,119.531944 268.623474,108.954964 313.802948,112.302170 
	C322.744568,112.964630 331.759735,115.648361 340.226593,118.787430 
	C347.481934,121.477341 349.526550,128.183136 345.427032,134.794891 
	C342.087677,140.180695 337.656311,145.249847 332.708313,149.208344 
	C319.332031,159.909531 303.313141,164.818420 286.627716,166.690872 
	C274.134186,168.092896 261.438538,167.724945 248.830139,168.034210 
	C247.213150,168.073883 245.567795,167.495987 243.956421,167.115860 
	C240.476028,166.294815 240.290329,164.145264 241.907852,161.507782 
	C242.590637,160.394455 243.471375,159.314850 244.490860,158.509445 
	C253.453522,151.428696 264.026520,149.011642 275.347412,148.490768 
	C272.924194,149.860764 270.166107,150.870544 268.183197,152.714111 
	C266.581390,154.203354 264.977570,156.789673 265.166351,158.713547 
	C265.289215,159.965790 268.597504,161.785873 270.523682,161.843338 
	C287.942383,162.363022 303.157227,156.634430 316.087219,144.917007 
	C316.455353,144.583389 316.767731,144.186279 317.092560,143.807175 
	C323.686127,136.111725 321.956329,129.624451 312.179932,127.240189 
	C306.413666,125.833916 300.357178,125.617592 293.940674,124.866196 
z"/>
<path fill="#2DAAD2" opacity="1.000000" stroke="none" 
	d="
M134.058350,344.057495 
	C139.021362,343.635498 143.689575,343.249756 148.314911,343.542236 
	C149.943481,343.645203 151.867325,345.089478 152.968933,346.469910 
	C157.610489,352.286255 161.992401,358.309784 166.900177,364.829926 
	C171.617844,358.618805 176.117386,353.116089 180.108536,347.266479 
	C182.173035,344.240662 184.487900,343.200592 187.986145,343.444824 
	C191.776138,343.709412 195.598862,343.504761 199.818848,343.504761 
	C199.818848,356.403870 199.818848,368.935394 199.818848,381.803925 
	C194.568237,381.803925 189.331757,381.803925 183.528839,381.803925 
	C183.528839,377.646423 183.528839,373.601440 183.528839,368.013824 
	C178.276306,374.145691 175.324265,379.810791 166.451599,379.566162 
	C157.739426,379.325928 155.283249,373.396637 150.168976,367.903442 
	C150.168976,373.282013 150.168976,377.632568 150.168976,382.051697 
	C144.367722,382.051697 139.120544,382.051697 133.746643,382.051697 
	C133.746643,369.216125 133.746643,356.788452 134.058350,344.057495 
z"/>
<path fill="#2FABD3" opacity="1.000000" stroke="none" 
	d="
M409.044159,342.968292 
	C421.183716,342.988647 432.832977,342.908691 444.478394,343.084045 
	C449.565765,343.160614 453.968872,345.068329 456.395569,349.898987 
	C458.904938,354.894196 457.986603,359.781128 454.555542,363.859497 
	C452.765839,365.986847 449.918243,367.224213 447.274811,369.052826 
	C450.877472,372.991364 454.635803,377.100037 459.051544,381.927429 
	C452.070831,381.927429 445.994110,382.019348 439.925110,381.844604 
	C438.803192,381.812256 437.518494,380.900635 436.648621,380.048187 
	C434.992462,378.425262 433.281830,376.727478 432.124725,374.750122 
	C428.618866,368.759247 423.478455,367.692078 416.894745,369.370972 
	C416.606232,373.304413 416.307526,377.377014 415.991058,381.692017 
	C410.568695,381.692017 405.452087,381.692017 399.828430,381.692017 
	C399.828430,369.023224 399.828430,356.348999 399.828430,342.971649 
	C402.692352,342.971649 405.622345,342.971649 409.044159,342.968292 
M430.309082,353.134369 
	C426.835266,353.115326 423.336884,352.854126 419.900391,353.202881 
	C418.623413,353.332458 417.491425,354.890717 416.293304,355.797424 
	C417.494263,356.721588 418.646606,358.350922 419.905273,358.437622 
	C423.679047,358.697662 427.522125,358.596100 431.283630,358.162567 
	C433.780670,357.874756 438.353668,356.446503 438.299530,356.089905 
	C437.641022,351.750305 433.943451,353.490845 430.309082,353.134369 
z"/>
<path fill="#30ABD3" opacity="1.000000" stroke="none" 
	d="
M44.276272,361.366455 
	C40.974819,350.959503 45.467884,343.520447 55.676216,343.191254 
	C69.462517,342.746704 83.273918,343.080841 97.455460,343.080841 
	C97.455460,346.373657 97.455460,349.438324 97.455460,353.701172 
	C85.717041,353.701172 73.847153,353.701172 61.977264,353.701172 
	C61.907738,354.383484 61.838207,355.065796 61.768677,355.748077 
	C63.291245,356.099243 64.806007,356.711151 66.337715,356.756989 
	C73.490669,356.971008 80.651901,356.924957 87.803207,357.172882 
	C94.390099,357.401245 99.039894,360.675690 100.525810,365.785217 
	C102.062080,371.067871 100.441177,376.522614 96.038414,379.550049 
	C94.330223,380.724670 92.124023,381.809570 90.131004,381.834351 
	C75.009705,382.022400 59.885014,381.937195 44.377655,381.937195 
	C44.377655,378.402771 44.377655,375.174072 44.377655,371.793488 
	C54.224102,371.793488 64.142296,371.859558 74.058601,371.751953 
	C76.922081,371.720886 80.318642,372.763916 82.731461,368.444763 
	C80.252769,368.174805 78.399788,367.856384 76.537880,367.790771 
	C69.223404,367.532928 61.832676,367.895691 54.621117,366.916718 
	C51.060406,366.433350 47.828415,363.528503 44.276272,361.366455 
z"/>
<path fill="#2EAAD3" opacity="1.000000" stroke="none" 
	d="
M355.206970,355.205261 
	C356.745728,356.138763 358.293274,357.039734 359.855011,357.065033 
	C368.501190,357.205200 377.150879,357.132172 385.678772,357.132172 
	C385.999603,357.553253 386.342377,357.796234 386.374268,358.074860 
	C387.489685,367.818329 387.357025,367.897369 377.772766,367.742065 
	C371.290863,367.637054 364.802765,367.662323 358.324036,367.852814 
	C357.202118,367.885773 356.112946,369.033661 355.008636,369.666565 
	C356.177826,370.400208 357.337372,371.752441 358.517731,371.770813 
	C369.139221,371.936218 379.764343,371.867493 390.771332,371.867493 
	C390.771332,375.044647 390.771332,378.243408 390.771332,381.947296 
	C373.423370,381.947296 356.180298,381.947296 338.544006,381.947296 
	C338.544006,368.957306 338.544006,356.252106 338.544006,343.153625 
	C356.114197,343.153625 373.360840,343.153625 391.140686,343.153625 
	C391.140686,346.283295 391.140686,349.307800 391.140686,353.190430 
	C381.005035,353.190430 370.747498,353.116455 360.493011,353.261353 
	C358.729370,353.286285 356.978882,354.242462 355.206970,355.205261 
z"/>
<path fill="#31ABD3" opacity="1.000000" stroke="none" 
	d="
M209.406830,148.433197 
	C236.094131,135.143661 264.000977,128.336411 293.438385,128.497162 
	C300.153290,128.533829 306.961700,129.910995 313.530731,131.488647 
	C317.675018,132.483963 318.400635,136.520126 315.553741,139.661789 
	C314.859497,140.427872 313.057007,141.124908 312.295135,140.756210 
	C297.485413,133.589249 282.153259,134.894836 266.813965,138.024231 
	C244.098557,142.658386 222.653061,150.579636 203.853729,164.492889 
	C194.296860,171.565872 183.109390,182.080429 176.331406,199.818130 
	C170.315292,197.711746 166.534103,191.708237 168.723831,185.830902 
	C170.593994,180.811401 173.341339,175.801971 176.830521,171.764526 
	C185.666275,161.540329 197.176392,154.732635 209.406830,148.433197 
z"/>
<path fill="#31ABD3" opacity="1.000000" stroke="none" 
	d="
M269.856903,157.895996 
	C270.517151,156.590317 271.345001,154.857925 272.669189,154.296722 
	C278.469727,151.838303 284.434418,149.770187 290.287781,147.430908 
	C291.369049,146.998779 292.211151,145.968185 293.163666,145.213837 
	C292.032654,144.496490 290.925812,143.197830 289.766968,143.149643 
	C274.350525,142.508774 259.636810,145.309891 246.054565,152.880203 
	C241.442337,155.450912 237.636612,158.776169 236.984467,164.636307 
	C236.874527,165.624222 235.175491,166.765228 233.974213,167.252060 
	C216.871872,174.182983 203.547134,184.827026 197.669006,203.157166 
	C197.297272,204.316315 194.996719,205.724213 193.757187,205.582703 
	C189.199173,205.062332 184.710190,203.937271 178.667465,202.736023 
	C182.433975,196.064667 185.153259,190.026566 188.945190,184.760910 
	C200.299622,168.993668 216.251312,159.258499 233.844742,151.875137 
	C249.264786,145.403900 265.219391,140.854584 281.898651,139.380325 
	C291.749115,138.509659 301.494843,139.348740 311.203308,144.494293 
	C298.736328,153.853851 285.487366,158.842331 269.856903,157.895996 
z"/>
<path fill="#2FABD3" opacity="1.000000" stroke="none" 
	d="
M280.028931,381.980896 
	C277.256653,381.980408 274.967834,381.980408 272.401428,381.980408 
	C272.401428,368.948914 272.401428,356.367889 272.401428,343.333496 
	C277.820312,343.333496 283.175262,343.333496 289.006592,343.333496 
	C289.006592,347.471741 289.006592,351.566132 289.006592,355.991180 
	C297.173920,355.991180 304.875916,355.991180 313.068298,355.991180 
	C313.068298,351.720978 313.068298,347.642303 313.068298,343.207520 
	C318.795074,343.207520 324.042664,343.207520 329.737732,343.207520 
	C329.737732,355.885132 329.737732,368.604065 329.737732,381.750885 
	C324.572296,381.750885 319.325043,381.750885 313.321869,381.750885 
	C313.321869,377.275909 313.321869,372.730774 313.321869,367.883728 
	C304.998932,367.883728 297.423615,367.883728 289.322296,367.883728 
	C289.322296,372.450073 289.322296,376.867340 289.322296,381.981354 
	C286.044373,381.981354 283.278381,381.981354 280.028931,381.980896 
z"/>
<path fill="#30ABD3" opacity="1.000000" stroke="none" 
	d="
M267.846558,192.813873 
	C255.446762,196.552917 243.423233,200.170456 231.399689,203.787994 
	C230.983444,203.173248 230.567215,202.558502 230.150970,201.943756 
	C233.380051,198.347061 236.198914,194.242401 239.911362,191.244278 
	C253.755859,180.063690 269.726959,173.253311 287.215729,170.350693 
	C300.590118,168.130951 313.490021,164.755524 325.544312,158.404221 
	C327.015228,157.629227 329.103149,157.168411 330.616455,157.592377 
	C331.909027,157.954544 333.612183,159.783188 333.632996,160.989059 
	C333.657440,162.404755 332.401733,164.520081 331.113434,165.174149 
	C320.459015,170.583374 309.816406,176.062897 298.875427,180.846893 
	C288.848450,185.231232 278.454895,188.777069 267.846558,192.813873 
z"/>
<path fill="#30ABD3" opacity="1.000000" stroke="none" 
	d="
M325.380432,207.389191 
	C312.237854,221.073380 295.534241,227.653061 278.424713,233.408722 
	C263.335754,238.484619 247.925583,241.841949 231.868835,239.969727 
	C224.160736,239.070953 216.927490,236.870407 211.872696,229.444504 
	C221.228226,227.926270 230.164124,226.656952 239.014664,224.946075 
	C242.306686,224.309692 244.846558,224.712341 247.846619,226.320007 
	C255.974686,230.675644 264.785675,229.453827 273.246918,227.678726 
	C292.034821,223.737137 307.622162,214.577789 318.413757,198.194809 
	C319.203918,196.995255 320.369904,195.922806 321.587708,195.146805 
	C326.195160,192.210922 330.896057,189.421661 336.044189,186.283585 
	C335.075775,194.875748 331.058502,201.350464 325.380432,207.389191 
z"/>
<path fill="#2EAAD3" opacity="1.000000" stroke="none" 
	d="
M212.930145,353.490601 
	C209.628098,353.934692 208.038300,353.001770 208.303391,349.776520 
	C208.464310,347.818634 208.333038,345.836700 208.333038,343.452209 
	C227.020157,343.452209 245.349243,343.452209 263.976044,343.452209 
	C263.976044,346.489990 263.976044,349.414520 263.976044,353.049438 
	C257.796631,353.049438 251.575485,353.049438 245.009308,353.049438 
	C245.009308,362.853149 245.009308,371.964813 245.009308,381.539429 
	C239.323608,381.539429 233.970688,381.539429 228.107635,381.539429 
	C228.107635,372.362030 228.107635,363.130707 228.107635,353.454651 
	C222.865982,353.454651 218.109406,353.454651 212.930145,353.490601 
z"/>
<path fill="#31ABD3" opacity="1.000000" stroke="none" 
	d="
M275.881226,255.022751 
	C268.223511,254.030579 260.913757,253.557602 253.930817,251.792038 
	C250.622147,250.955490 247.938126,247.648438 245.307449,244.773758 
	C252.954056,243.726715 259.630493,241.247864 267.632568,244.128326 
	C280.354553,248.707779 293.003998,244.470490 304.378021,238.030121 
	C314.999451,232.015930 323.601105,223.822281 327.424011,211.591522 
	C327.966431,209.856171 329.686157,208.488831 331.095612,206.644058 
	C335.215302,211.754623 335.787598,217.226639 332.776947,221.836823 
	C328.846802,227.855057 324.258270,233.800705 318.784088,238.380356 
	C306.638580,248.541183 292.330444,254.125809 275.881226,255.022751 
z"/>
<path fill="#2DAAD2" opacity="1.000000" stroke="none" 
	d="
M108.837051,360.001007 
	C108.840210,354.204041 108.840210,348.906799 108.840210,343.241760 
	C114.339188,343.241760 119.567841,343.241760 125.224693,343.241760 
	C125.224693,356.005707 125.224693,368.823944 125.224693,381.873901 
	C119.728661,381.873901 114.627052,381.873901 108.833885,381.873901 
	C108.833885,374.659729 108.833885,367.580261 108.837051,360.001007 
z"/>
<path fill="#32ACD3" opacity="1.000000" stroke="none" 
	d="
M276.784271,263.190979 
	C275.723358,259.893524 276.712433,258.420715 279.864471,258.266846 
	C282.177094,258.153931 284.476624,257.772736 286.814209,257.507446 
	C291.763733,264.497833 295.524933,265.708496 304.043457,262.899933 
	C314.365112,259.496857 320.240784,251.871063 323.952545,242.078445 
	C324.900330,239.577866 326.517395,237.330948 327.826935,234.967484 
	C328.564056,235.082611 329.301178,235.197754 330.038330,235.312881 
	C330.148010,239.057892 331.083130,243.003784 330.228821,246.514191 
	C325.821503,264.624023 301.580109,277.254150 284.089874,270.481567 
	C281.222015,269.371033 279.258514,265.925110 276.784271,263.190979 
z"/>
<path fill="#32ACD3" opacity="1.000000" stroke="none" 
	d="
M215.076538,199.304565 
	C212.296814,206.640228 212.296814,206.640228 200.982819,205.687469 
	C203.560516,195.208862 209.223740,186.849442 217.734695,180.715744 
	C225.836838,174.876617 233.883102,167.951096 245.433258,171.553879 
	C232.930374,178.137268 221.257004,185.454590 215.076538,199.304565 
z"/>
<path fill="#32ACD3" opacity="1.000000" stroke="none" 
	d="
M291.297485,209.385559 
	C297.546875,206.751480 303.446289,204.285248 309.938446,201.571213 
	C301.110229,218.838516 262.072754,231.382233 250.399506,222.974335 
	C263.833649,218.527786 277.390594,214.040588 291.297485,209.385559 
z"/>
<path fill="#35ADD4" opacity="1.000000" stroke="none" 
	d="
M233.784760,182.759644 
	C243.197327,177.042053 252.256805,171.331253 264.405518,172.452301 
	C263.126556,173.215454 262.412659,173.743698 261.621033,174.098633 
	C247.313889,180.513504 234.189789,188.269836 225.881531,202.438004 
	C224.715515,204.426407 220.610214,204.691208 216.727081,206.194550 
	C219.625595,195.125809 225.943710,188.597473 233.784760,182.759644 
z"/>
<path fill="#35ADD4" opacity="1.000000" stroke="none" 
	d="
M319.950897,217.958099 
	C315.581390,222.747391 311.773743,228.263275 306.721741,232.170059 
	C297.108490,239.604156 285.735779,242.532166 273.552948,242.026764 
	C272.397675,241.978836 271.233887,241.861725 270.101837,241.636887 
	C269.480103,241.513397 268.916473,241.097565 267.650269,240.487854 
	C286.287659,235.260345 303.798462,228.908997 319.659729,218.045654 
	C319.991272,217.997070 319.950897,217.958099 319.950897,217.958099 
z"/>
<path fill="#3AAFD5" opacity="1.000000" stroke="none" 
	d="
M308.783569,284.229370 
	C317.546417,279.732391 319.440613,270.474304 324.209503,262.624725 
	C326.964020,267.603180 326.340088,271.633820 324.323090,275.346313 
	C320.271912,282.803040 313.738495,287.169891 305.491394,288.629486 
	C299.068665,289.766174 294.357880,285.903076 293.972656,280.026062 
	C293.758423,276.757416 294.829865,275.265717 298.238342,276.131226 
	C300.363739,285.021088 301.669189,286.085175 308.783569,284.229370 
z"/>
<path fill="#35ADD4" opacity="1.000000" stroke="none" 
	d="
M292.278351,259.051025 
	C292.563110,257.732880 292.815918,256.115814 293.639282,255.736221 
	C301.879120,251.937241 310.212860,248.341858 318.103973,244.872055 
	C316.816803,254.426102 301.363037,263.641968 292.278351,259.051025 
z"/>
<path fill="#35ADD4" opacity="1.000000" stroke="none" 
	d="
M306.039154,331.020325 
	C307.442810,326.799530 308.791443,322.558960 310.296204,318.374512 
	C310.599579,317.530853 311.373322,316.721954 312.137451,316.201050 
	C315.960693,313.594879 319.852936,311.089935 324.195435,308.237701 
	C321.503143,318.589081 315.354370,325.762665 306.332764,331.012115 
	C305.997559,330.989288 306.039154,331.020325 306.039154,331.020325 
z"/>
<path fill="#3AAFD5" opacity="1.000000" stroke="none" 
	d="
M287.955475,325.897003 
	C281.985016,325.896454 276.503387,326.005219 271.032806,325.807373 
	C269.878479,325.765625 268.764709,324.600464 267.632263,323.953003 
	C268.760193,323.292358 269.877258,322.081635 271.017792,322.059082 
	C279.314087,321.895325 287.616577,321.895752 295.912933,322.058105 
	C297.053375,322.080475 298.170715,323.282898 299.298767,323.939026 
	C298.171783,324.591248 297.095215,325.665894 295.907288,325.807617 
	C293.452332,326.100555 290.938110,325.896606 287.955475,325.897003 
z"/>
<path fill="#3AAFD5" opacity="1.000000" stroke="none" 
	d="
M343.906860,321.969452 
	C346.546265,321.974792 348.724487,321.799377 350.844971,322.072479 
	C351.719177,322.185120 352.469208,323.261627 353.275726,323.899689 
	C352.496552,324.557617 351.727570,325.772919 350.936707,325.787323 
	C342.982391,325.932373 335.023102,325.950073 327.069550,325.788940 
	C326.152405,325.770355 325.261658,324.447815 324.358643,323.729797 
	C325.408508,323.145172 326.442749,322.090759 327.510895,322.055237 
	C332.809845,321.879059 338.117737,321.971619 343.906860,321.969452 
z"/>
<path fill="#3AAFD5" opacity="1.000000" stroke="none" 
	d="
M342.404358,333.677460 
	C336.667847,333.680573 331.366882,333.796997 326.078888,333.587128 
	C324.941681,333.542023 323.851288,332.318359 322.739349,331.637573 
	C323.888092,330.972229 325.017395,329.775208 326.188904,329.732330 
	C331.643097,329.532806 337.111755,329.563599 342.568420,329.732361 
	C343.670013,329.766418 344.742065,330.755219 345.827759,331.303833 
	C344.833374,332.093903 343.838989,332.883942 342.404358,333.677460 
z"/>
<path fill="#2DAAD2" opacity="1.000000" stroke="none" 
	d="
M337.883240,336.848938 
	C340.327332,337.070801 342.286713,337.292694 344.961212,337.595581 
	C341.309418,340.931824 313.940735,341.005188 310.664093,337.022858 
	C319.575592,336.964905 328.487061,336.906921 337.883240,336.848938 
z"/>
<path fill="#2DAAD2" opacity="1.000000" stroke="none" 
	d="
M260.344299,336.987122 
	C270.415070,337.054932 280.023132,337.208130 289.629608,337.428772 
	C289.874176,337.434387 290.101715,338.181885 290.709961,339.218994 
	C289.272430,339.577698 288.134491,340.099091 286.992188,340.108734 
	C278.676819,340.178986 270.360535,340.162567 262.044678,340.134644 
	C259.995361,340.127777 257.698975,340.152222 260.344299,336.987122 
z"/>
<path fill="#3AAFD5" opacity="1.000000" stroke="none" 
	d="
M314.309753,274.251953 
	C312.308777,276.491516 310.692169,278.663147 308.642822,280.289581 
	C307.516754,281.183258 305.604034,281.574280 304.159882,281.373383 
	C303.432922,281.272247 302.251526,279.106476 302.524750,278.294800 
	C303.038483,276.768646 304.183350,275.006134 305.556824,274.308563 
	C308.740692,272.691467 312.217163,271.650421 316.333221,270.088043 
	C315.541016,271.772247 315.027283,272.864410 314.309753,274.251953 
z"/>
<path fill="#3AAFD5" opacity="1.000000" stroke="none" 
	d="
M320.102814,295.093323 
	C317.004822,298.257507 314.017426,301.543335 310.746735,304.517639 
	C309.651825,305.513336 307.856720,305.827179 306.318115,306.136139 
	C306.124237,306.175049 304.970612,304.056702 305.254364,303.320435 
	C305.898682,301.648651 306.818848,299.555695 308.241241,298.817108 
	C311.582397,297.082153 315.283783,296.041046 319.325500,294.767944 
	C319.811615,294.816772 320.102814,295.093323 320.102814,295.093323 
z"/>
<path fill="#3AAFD5" opacity="1.000000" stroke="none" 
	d="
M281.995880,329.102997 
	C284.458344,329.113647 286.468964,328.939148 288.415253,329.216431 
	C289.327637,329.346405 290.115906,330.347626 290.960419,330.954010 
	C290.194305,331.635071 289.452026,332.871246 288.658203,332.905334 
	C284.201630,333.096497 279.728424,333.096802 275.271942,332.904968 
	C274.490845,332.871368 273.762390,331.616058 273.009613,330.924988 
	C273.861298,330.326782 274.658478,329.339508 275.575989,329.210876 
	C277.523346,328.937927 279.533356,329.112061 281.995880,329.102997 
z"/>
<path fill="#3AAFD5" opacity="1.000000" stroke="none" 
	d="
M338.724640,160.470215 
	C337.234344,158.925934 336.063202,157.224503 334.307159,154.673355 
	C337.602448,154.397598 340.199921,154.180237 342.797363,153.962860 
	C343.117859,154.485260 343.438324,155.007660 343.758820,155.530045 
	C342.187134,157.124390 340.615479,158.718719 338.724640,160.470215 
z"/>
<path fill="#3AAFD5" opacity="1.000000" stroke="none" 
	d="
M321.046051,294.048553 
	C321.122742,293.975677 321.199402,293.902771 321.144043,293.919983 
	C321.011993,294.010101 321.046051,294.048553 321.046051,294.048553 
z"/>
<path fill="#35ADD4" opacity="1.000000" stroke="none" 
	d="
M305.980408,330.969849 
	C305.876648,331.010803 305.790039,331.071228 305.871307,331.075989 
	C306.039154,331.020325 305.997559,330.989288 305.980408,330.969849 
z"/>
<path fill="#3AAFD5" opacity="1.000000" stroke="none" 
	d="
M319.674683,294.669922 
	C319.854004,294.325012 320.170227,294.126953 320.766266,293.988708 
	C321.046051,294.048553 321.011993,294.010101 320.996002,293.990356 
	C320.846100,294.277191 320.712219,294.583771 320.340576,294.991821 
	C320.102814,295.093323 319.811615,294.816772 319.674683,294.669922 
z"/>
<path fill="#35ADD4" opacity="1.000000" stroke="none" 
	d="
M320.008728,218.018982 
	C320.149902,217.818436 320.273590,217.595963 320.397278,217.373505 
	C320.382629,217.571579 320.368011,217.769669 320.152130,217.962921 
	C319.950897,217.958099 319.991272,217.997070 320.008728,218.018982 
z"/>
<path fill="#F1F9FC" opacity="1.000000" stroke="none" 
	d="
M430.774689,353.132690 
	C433.943451,353.490845 437.641022,351.750305 438.299530,356.089905 
	C438.353668,356.446503 433.780670,357.874756 431.283630,358.162567 
	C427.522125,358.596100 423.679047,358.697662 419.905273,358.437622 
	C418.646606,358.350922 417.494263,356.721588 416.293304,355.797424 
	C417.491425,354.890717 418.623413,353.332458 419.900391,353.202881 
	C423.336884,352.854126 426.835266,353.115326 430.774689,353.132690 
z"/>
</svg>