<svg version="1.1" id="Layer_1" xmlns="http://www.w3.org/2000/svg" xmlns:xlink="http://www.w3.org/1999/xlink" x="0px" y="0px"
	 width="100%" viewBox="0 0 500 500" enable-background="new 0 0 500 500" xml:space="preserve">

<path fill="#730BB8" opacity="1.000000" stroke="none" 
	d="
M55.167561,296.829590 
	C43.671993,234.896667 57.775074,179.341019 96.944038,131.140259 
	C129.767075,90.748718 173.250137,67.435036 225.095657,60.915890 
	C281.772430,53.789253 332.968658,67.960976 377.368774,103.800415 
	C413.944733,133.324295 437.515411,171.605072 446.832458,217.891098 
	C458.944031,278.059967 445.876038,332.838745 407.900452,380.845734 
	C377.345764,419.471558 337.010651,443.663025 288.534760,452.593903 
	C234.042221,462.633331 183.055542,452.524445 137.362823,420.633484 
	C94.799385,390.926605 67.698547,350.321655 55.878059,299.663757 
	C55.688858,298.852875 55.456623,298.052063 55.167561,296.829590 
M361.216797,169.361725 
	C358.971497,166.108459 357.172302,162.405304 354.413635,159.669739 
	C316.097809,121.675156 270.713684,105.619995 217.033035,116.142410 
	C203.986923,118.699692 191.662491,123.463463 179.426086,129.842865 
	C184.277054,134.113602 188.695251,138.003326 192.779510,142.254044 
	C192.779510,142.254044 192.491150,142.652420 191.855728,142.330246 
	C181.571762,136.723328 170.661194,132.748138 159.074844,131.191971 
	C134.480652,127.888733 123.010872,144.016388 127.050034,162.582306 
	C128.449600,169.015350 130.822311,175.236649 132.205185,181.873169 
	C132.038071,182.001160 131.870941,182.129150 131.135422,181.902756 
	C129.593994,179.969971 128.052582,178.037170 126.011925,175.478394 
	C120.192207,184.887131 113.481972,193.404282 109.374825,203.031906 
	C105.275475,212.641251 103.783562,223.362930 101.114456,233.729263 
	C98.277359,235.560287 92.105095,229.609467 90.985115,237.601471 
	C94.569954,238.072784 97.958855,238.518326 101.437080,238.975632 
	C101.198921,243.929932 100.986519,248.348465 100.775116,252.746094 
	C94.821846,252.746094 89.242271,252.746094 83.416321,252.746094 
	C81.605125,257.203766 80.162727,261.851135 77.919769,266.073181 
	C70.497337,280.044891 71.270752,293.807159 75.848709,308.750275 
	C101.437737,392.276367 181.524200,447.927704 272.158203,437.817139 
	C306.637787,433.970764 337.298370,420.977753 364.363525,399.360901 
	C366.764160,397.443573 369.147827,395.505035 371.874176,393.306396 
	C370.197418,391.744995 369.132050,390.718903 368.030975,389.732697 
	C349.694061,373.308899 335.353729,353.862396 324.222076,331.967957 
	C317.734009,319.206940 317.697327,319.245239 303.743347,323.480499 
	C301.448425,324.177094 299.085449,324.649628 296.753937,325.225708 
	C308.358795,315.387421 336.486145,312.687195 353.572266,314.548981 
	C368.571594,316.183289 383.459320,316.526550 398.098694,311.956299 
	C408.770813,308.624542 417.736206,302.772339 425.533203,294.504425 
	C420.455322,292.235474 420.455322,292.235474 417.178833,294.979675 
	C412.795471,298.650848 409.445404,299.167480 405.042908,296.309723 
	C411.921356,297.422058 415.881012,293.161346 419.455688,288.729462 
	C427.316254,292.429230 429.250977,291.976685 432.575378,284.539581 
	C435.550568,277.883698 438.356079,271.075378 440.377075,264.085846 
	C444.333435,250.402908 439.701324,239.938080 427.273071,232.999786 
	C424.663910,231.543182 421.942841,230.283447 419.250275,228.980621 
	C408.931519,223.987793 398.329102,219.502335 388.355103,213.897675 
	C378.187073,208.183975 369.257263,200.631668 366.614014,188.478470 
	C365.561066,183.637238 363.280945,182.913025 359.431793,184.025970 
	C356.908325,184.755630 354.365997,185.735016 352.163757,187.127197 
	C351.066132,187.821060 350.012482,189.757553 350.128632,191.022766 
	C351.937836,210.736496 343.851013,226.315933 330.043762,239.467789 
	C305.983704,262.385773 274.412415,254.080429 264.754303,222.273270 
	C263.320068,217.549911 262.633057,212.599686 261.627594,207.882217 
	C260.028259,207.777435 258.519989,207.678635 257.011719,207.579819 
	C256.892609,207.125702 256.773529,206.671570 256.654419,206.217438 
	C257.777100,205.661255 259.038696,205.275833 259.986694,204.504852 
	C261.124908,203.579132 262.567963,202.469009 262.890228,201.189667 
	C265.026581,192.709030 269.782440,185.882889 277.827759,182.951920 
	C298.535309,175.408020 319.347717,166.854538 342.116547,176.514755 
	C342.157288,176.682037 342.198059,176.849304 342.288239,177.713715 
	C344.183868,179.502350 346.079498,181.290985 347.741791,182.859421 
	C353.289429,181.090714 358.707611,179.363281 365.131683,177.315155 
	C363.622009,175.159500 362.261505,173.216858 360.781281,170.634338 
	C360.782135,170.417343 360.782990,170.200333 361.216797,169.361725 
M321.050629,122.268837 
	C319.704315,114.941406 317.145172,108.067963 311.659363,102.898026 
	C309.263672,100.640221 305.904358,98.409210 302.787109,98.092804 
	C291.913940,96.989182 283.800995,102.981102 276.258545,109.224434 
	C291.554016,115.211098 306.557526,121.083466 321.684753,127.004280 
	C321.541168,125.929214 321.348572,124.487480 321.050629,122.268837 
M275.403137,193.955597 
	C270.533905,199.417786 268.710846,205.934677 270.258911,212.903549 
	C270.774475,215.224487 273.481964,217.881210 275.806458,218.775665 
	C278.924255,219.975388 281.667206,217.741257 282.627350,214.540024 
	C284.844330,207.147903 289.462128,201.807587 295.831543,197.699066 
	C298.599548,195.913559 299.909271,193.320572 298.544220,189.987518 
	C297.106445,186.476852 293.970062,185.043335 290.838745,186.204971 
	C285.679993,188.118744 280.873108,190.981033 275.403137,193.955597 
z"/>

<path fill="#FCF9FD" opacity="1.000000" stroke="none" 
	d="
M321.103333,122.657288 
	C321.348572,124.487480 321.541168,125.929214 321.684753,127.004280 
	C306.557526,121.083466 291.554016,115.211098 276.258545,109.224434 
	C283.800995,102.981102 291.913940,96.989182 302.787109,98.092804 
	C305.904358,98.409210 309.263672,100.640221 311.659363,102.898026 
	C317.145172,108.067963 319.704315,114.941406 321.103333,122.657288 
z"/>
<path fill="#FCFAFE" opacity="1.000000" stroke="none" 
	d="
M275.660522,193.699554 
	C280.873108,190.981033 285.679993,188.118744 290.838745,186.204971 
	C293.970062,185.043335 297.106445,186.476852 298.544220,189.987518 
	C299.909271,193.320572 298.599548,195.913559 295.831543,197.699066 
	C289.462128,201.807587 284.844330,207.147903 282.627350,214.540024 
	C281.667206,217.741257 278.924255,219.975388 275.806458,218.775665 
	C273.481964,217.881210 270.774475,215.224487 270.258911,212.903549 
	C268.710846,205.934677 270.533905,199.417786 275.660522,193.699554 
z"/>
<path fill="#F5EEFA" opacity="1.000000" stroke="none" 
	d="
M360.841156,170.954285 
	C360.467224,171.531265 360.033417,171.788315 359.294983,172.020386 
	C358.990387,171.995392 358.904938,171.900696 358.904907,171.900696 
	C359.332367,171.288513 359.759796,170.676361 360.485535,170.023773 
	C360.782990,170.200333 360.782135,170.417343 360.841156,170.954285 
z"/>
<path fill="#F5EEFA" opacity="1.000000" stroke="none" 
	d="
M342.029785,176.271515 
	C342.489075,175.930740 343.035126,175.833206 343.581177,175.735687 
	C343.310669,176.141052 343.040192,176.546432 342.504272,176.984192 
	C342.198059,176.849304 342.157288,176.682037 342.029785,176.271515 
z"/>
<path fill="#730BB8" opacity="1.000000" stroke="none" 
	d="
M191.743240,367.256775 
	C170.322861,343.033447 149.203690,319.015472 127.875198,295.184845 
	C125.054321,292.033020 125.069260,289.617737 126.723885,286.014740 
	C133.481079,271.300842 149.871994,268.416229 160.853912,280.337128 
	C183.878174,305.329987 206.844131,330.376770 229.773666,355.456573 
	C235.931000,362.191315 237.518692,369.935425 234.232574,378.591156 
	C231.010727,387.077667 224.004562,390.444336 215.842346,391.958221 
	C214.575211,392.193268 212.606384,390.763855 211.534088,389.584167 
	C204.924561,382.312531 198.479126,374.891754 191.743240,367.256775 
z"/>
<path fill="#730BB8" opacity="1.000000" stroke="none" 
	d="
M118.541473,330.989746 
	C116.480835,319.097565 119.011360,308.156769 122.686577,296.261261 
	C151.534119,328.914246 179.897873,361.019623 209.007950,393.969757 
	C204.370453,394.722260 200.587250,395.664368 196.763443,395.877258 
	C191.451187,396.173004 186.102722,396.070892 180.780319,395.865570 
	C174.645660,395.628937 169.552368,392.955231 165.555573,388.333282 
	C151.279510,371.824066 136.999512,355.317627 122.852135,338.698486 
	C121.065720,336.599976 120.058723,333.837921 118.541473,330.989746 
z"/>
<path fill="#750EB8" opacity="1.000000" stroke="none" 
	d="
M105.210388,333.835754 
	C93.654846,309.569794 86.751663,284.479645 84.944191,257.895264 
	C90.404678,257.895264 95.345108,257.895264 100.427345,257.895264 
	C101.266495,266.420197 101.571884,274.729156 103.005127,282.838837 
	C105.055878,294.442505 107.918190,305.903320 110.461502,317.419037 
	C111.316254,321.289215 111.847961,325.296448 113.249947,328.964874 
	C115.412682,334.623840 118.197708,340.044952 120.966820,346.110229 
	C119.825584,347.860321 118.138153,350.447968 115.945724,353.810059 
	C112.256348,346.959167 108.814301,340.567535 105.210388,333.835754 
z"/>
<path fill="#740CB8" opacity="1.000000" stroke="none" 
	d="
M421.121338,242.087631 
	C432.681763,242.240555 439.541229,251.150497 435.025543,261.278290 
	C432.162018,267.700653 426.669769,272.975555 422.171509,278.617645 
	C421.503906,279.454956 419.518494,280.154877 418.647644,279.771484 
	C412.038055,276.861633 404.876709,274.570282 399.208313,270.323151 
	C392.608978,265.378479 393.383148,256.253052 399.794647,250.789612 
	C405.778473,245.690643 413.016541,243.295425 421.121338,242.087631 
z"/>
<path fill="#750FB9" opacity="1.000000" stroke="none" 
	d="
M165.749008,177.816376 
	C164.211319,180.357025 162.864532,182.590164 161.254578,185.259689 
	C156.431763,178.987900 153.144150,172.552017 152.148911,165.186600 
	C151.358261,159.335449 154.715210,155.377213 160.625290,155.297836 
	C167.723114,155.202530 174.207352,157.573975 179.984848,160.954636 
	C175.152863,166.649918 170.546387,172.079391 165.749008,177.816376 
z"/>
<path fill="#7712BA" opacity="1.000000" stroke="none" 
	d="
M119.902481,358.978882 
	C121.402138,355.357758 122.849724,352.134399 124.594040,348.250366 
	C126.818153,350.753113 128.226151,352.337524 129.599380,353.882782 
	C128.740097,356.773041 127.412491,359.524231 127.172546,362.367218 
	C126.454987,370.869385 134.199417,377.951813 142.700500,375.890594 
	C147.840286,374.644379 149.961853,376.639709 151.986084,380.728394 
	C144.403763,385.008820 136.816406,385.436005 129.413422,380.704926 
	C121.675339,375.759644 118.452408,368.542450 119.902481,358.978882 
z"/>
<path fill="#7915BB" opacity="1.000000" stroke="none" 
	d="
M140.901993,367.038116 
	C141.975189,368.317963 142.829254,369.323792 143.883835,370.565735 
	C140.066208,372.814392 136.966202,371.546265 134.393723,369.043976 
	C131.479431,366.209290 131.224091,362.727997 133.256653,358.242981 
	C135.993317,361.383118 138.338089,364.073578 140.901993,367.038116 
z"/>
<path fill="#730BB8" opacity="1.000000" stroke="none" 
	d="
M132.477844,181.713928 
	C132.718658,182.271927 132.686783,182.989182 132.654907,183.706436 
	C132.380142,183.426224 132.105377,183.146027 131.767212,182.561493 
	C131.870941,182.129150 132.038071,182.001160 132.477844,181.713928 
z"/>
<path fill="#F5EEFA" opacity="1.000000" stroke="none" 
	d="
M345.695068,175.333359 
	C345.992920,175.348557 346.156158,175.504944 346.319427,175.661331 
	C346.066467,175.599075 345.813477,175.536804 345.695068,175.333359 
z"/>
<path fill="#F5EEFA" opacity="1.000000" stroke="none" 
	d="
M350.015686,174.797363 
	C349.885834,174.603882 349.948334,174.408127 350.010834,174.212387 
	C350.076569,174.406616 350.142303,174.600861 350.015686,174.797363 
z"/>
<path fill="#F5EEFA" opacity="1.000000" stroke="none" 
	d="
M354.014954,173.793701 
	C353.886932,173.602631 353.948669,173.409393 354.010406,173.216141 
	C354.075195,173.407928 354.139984,173.599716 354.014954,173.793701 
z"/>
<path fill="#F5EEFA" opacity="1.000000" stroke="none" 
	d="
M359.030029,172.045349 
	C358.582886,172.207596 358.096161,172.319870 357.609406,172.432129 
	C357.878540,172.279251 358.147675,172.126373 358.660889,171.937103 
	C358.904938,171.900696 358.990387,171.995392 359.030029,172.045349 
z"/>
<path fill="#730BB8" opacity="1.000000" stroke="none" 
	d="
M192.946472,142.073547 
	C193.343506,142.198914 193.573563,142.504791 193.803619,142.810669 
	C193.531235,142.866745 193.258865,142.922836 192.738815,142.815674 
	C192.491150,142.652420 192.779510,142.254044 192.946472,142.073547 
z"/>
</svg>